Coordinates
version=1
nRows=8
nColumns=46
inDegrees=yes

Units are S.I. units (second, meters, Newtons, ...)
Angles are in degrees.

endheader
time	pelvis_tilt	pelvis_list	pelvis_rotation	pelvis_tx	pelvis_ty	pelvis_tz	bb_angle	bb_tx	bb_ty	bb_tz	hip_flexion_r	hip_adduction_r	hip_rotation_r	knee_angle_r	knee_angle_r_beta	ankle_angle_r	subtalar_angle_r	mtp_angle_r	crank_angle_r	hip_flexion_l	hip_adduction_l	hip_rotation_l	knee_angle_l	knee_angle_l_beta	ankle_angle_l	subtalar_angle_l	mtp_angle_l	crank_angle_l	lumbar_extension	lumbar_bending	lumbar_rotation	arm_flex_r	arm_add_r	arm_rot_r	elbow_flex_r	pro_sup_r	wrist_flex_r	wrist_dev_r	arm_flex_l	arm_add_l	arm_rot_l	elbow_flex_l	pro_sup_l	wrist_flex_l	wrist_dev_l
      7.50500000	    -14.75649676	     -0.34356524	      0.57529531	      0.13355292	      1.09426447	     -0.26233268	      0.00000000	      0.50000000	      0.00000000	      0.25000000	     45.44698652	     -5.15141235	     -7.42647169	     33.56433482	      0.58580815	     -9.77093962	     -7.06313178	      0.00000000	      0.00000000	     83.21734098	     -2.35330666	      5.13773708	    115.06504369	      2.00826387	     -2.68217267	    -14.45082837	      0.00000000	      0.00000000	    -59.48301841	      0.13945927	     -3.75299891	     89.72765893	     -4.26688268	     32.78683521	     36.57107149	     24.26727604	      0.00000000	      0.00000000	     89.61635781	    -12.94845304	     38.90314166	     43.54179560	     30.59070647	      0.00000000	      0.00000000
      7.51000000	    -14.84173019	     -0.10760517	      0.95679396	      0.13361130	      1.09414639	     -0.26121661	      0.00000000	      0.50000000	      0.00000000	      0.25000000	     44.47039029	     -5.64586539	     -8.23236870	     32.62612894	      0.56943337	    -10.69691169	     -6.25663299	      0.00000000	      0.00000000	     84.79568534	     -2.21031511	      4.97035974	    115.84627403	      2.02189891	     -2.72365272	    -14.22067037	      0.00000000	      0.00000000	    -59.28761348	      0.07452638	     -3.86059362	     89.72239055	     -4.40027833	     32.86098463	     36.14476891	     24.17524931	      0.00000000	      0.00000000	     89.62721175	    -12.47402642	     39.04236085	     43.39353510	     30.53204518	      0.00000000	      0.00000000
      7.51500000	    -14.88277248	      0.03481143	      1.39383041	      0.13356239	      1.09422264	     -0.26021791	      0.00000000	      0.50000000	      0.00000000	      0.25000000	     43.53807765	     -6.10633327	     -9.14645205	     31.89562672	      0.55668370	    -11.67003446	     -5.47490631	      0.00000000	      0.00000000	     86.26087104	     -1.98534992	      4.87925281	    116.48204437	      2.03299519	     -2.60214009	    -14.10102365	      0.00000000	      0.00000000	    -59.13090968	      0.09992697	     -3.81356118	     89.72351453	     -4.64263570	     32.93399557	     35.60774734	     24.06404211	      0.00000000	      0.00000000	     89.62035155	    -11.98091170	     39.17910319	     43.24987652	     30.46702738	      0.00000000	      0.00000000
      7.52000000	    -14.84836128	      0.09029074	      1.83242423	      0.13350018	      1.09445243	     -0.25926364	      0.00000000	      0.50000000	      0.00000000	      0.25000000	     42.58974141	     -6.49633425	    -10.00002804	     31.33191261	      0.54684504	    -12.41431222	     -4.69137190	      0.00000000	      0.00000000	     87.61628913	     -1.77850210	      4.87286307	    117.00912948	      2.04219456	     -2.50084744	    -13.88643516	      0.00000000	      0.00000000	    -58.95250119	      0.13416458	     -3.51145556	     89.73000333	     -5.23779046	     33.76891587	     34.78998867	     23.80708933	      0.00000000	      0.00000000	     89.63593466	    -10.62374963	     39.09286244	     41.99620929	     29.77769879	      0.00000000	      0.00000000
      7.52500000	    -14.83555267	      0.21632754	      2.25646388	      0.13334636	      1.09505578	     -0.25826944	      0.00000000	      0.50000000	      0.00000000	      0.25000000	     41.77248893	     -6.93647144	    -10.82914873	     30.93401707	      0.53990045	    -13.35819654	     -4.05344089	      0.00000000	      0.00000000	     88.85582432	     -1.56428383	      4.73656477	    117.30835040	      2.04741695	     -2.41265153	    -13.78542603	      0.00000000	      0.00000000	    -58.95184891	      0.14321352	     -3.54803533	     89.72916098	     -5.49839822	     33.74486040	     34.54659838	     23.73611051	      0.00000000	      0.00000000	     89.63211272	    -10.20854627	     39.05099955	     42.24483783	     29.73000856	      0.00000000	      0.00000000
      7.53000000	    -14.84317748	      0.36742796	      2.57707666	      0.13305394	      1.09583984	     -0.25715620	      0.00000000	      0.50000000	      0.00000000	      0.25000000	     41.10837273	     -7.31086866	    -11.42283258	     30.71479190	      0.53607425	    -14.49451026	     -3.50721423	      0.00000000	      0.00000000	     90.02227146	     -1.47947519	      4.51108691	    117.43349754	      2.04960118	     -2.34045545	    -13.72846010	      0.00000000	      0.00000000	    -58.96822064	      0.05424329	     -3.61537095	     89.72682290	     -5.68187455	     33.69662796	     34.40611178	     23.69689597	      0.00000000	      0.00000000	     89.62958307	     -9.85477342	     39.01315381	     42.42656465	     29.72102483	      0.00000000	      0.00000000
      7.53500000	    -14.82634307	      0.45922746	      2.97857639	      0.13271591	      1.09695668	     -0.25627646	      0.00000000	      0.50000000	      0.00000000	      0.25000000	     40.46937767	     -7.70960899	    -12.08695692	     30.62771992	      0.53455456	    -15.55833906	     -3.07001153	      0.00000000	      0.00000000	     91.02444700	     -1.26747593	      4.36046923	    117.38701970	      2.04878999	     -2.19593143	    -13.62361683	      0.00000000	      0.00000000	    -59.02572910	      0.08890115	     -3.62364327	     89.72969949	     -5.95766376	     33.61016500	     34.23492308	     23.64932363	      0.00000000	      0.00000000	     89.62933093	     -9.43468066	     38.91819290	     42.59915015	     29.70256595	      0.00000000	      0.00000000
      7.54000000	    -14.61817212	      0.49803085	      3.47588941	      0.13225946	      1.09851565	     -0.25575052	      0.00000000	      0.50000000	      0.00000000	      0.25000000	     39.70073975	     -8.14991753	    -12.86848050	     30.74749563	      0.53664504	    -16.39603782	     -2.67775174	      0.00000000	      0.00000000	     91.71978850	     -0.84767122	      4.31208091	    117.20374154	      2.04559119	     -1.90852430	    -13.43878604	      0.00000000	      0.00000000	    -59.31900868	      0.25448430	     -3.45024071	     89.73189314	     -6.49701035	     33.39292445	     34.25617114	     23.58438183	      0.00000000	      0.00000000	     89.63293059	     -8.45585998	     38.03291642	     42.43844529	     29.40220320	      0.00000000	      0.00000000
